<svg width="35" height="34" viewBox="0 0 35 34" fill="none" xmlns="http://www.w3.org/2000/svg">
<path fill-rule="evenodd" clip-rule="evenodd" d="M4.052 2.99974C3.27535 2.99974 2.64575 3.62934 2.64575 4.40599C2.64575 5.18264 3.27535 5.81224 4.052 5.81224H6.50373L6.9402 7.50676L9.36257 16.9113C7.95122 17.3506 6.89575 18.6409 6.89575 20.2185C6.89575 22.1735 8.51661 23.6872 10.427 23.6872H26.7187C27.4953 23.6872 28.1249 23.0576 28.1249 22.281C28.1249 21.5043 27.4953 20.8747 26.7187 20.8747H10.427C9.99018 20.8747 9.70825 20.5417 9.70825 20.2185C9.70825 19.8953 9.99018 19.5622 10.427 19.5622H11.1353H26.7187C27.3602 19.5622 27.9204 19.128 28.0805 18.5068L30.9138 7.50676C31.0223 7.08571 30.9298 6.63817 30.6635 6.29452C30.3971 5.95086 29.9868 5.74974 29.552 5.74974H9.39194L8.95547 4.05522C8.79544 3.43395 8.23522 2.99974 7.59367 2.99974H4.052ZM11.1353 24.9997C9.61615 24.9997 8.31242 26.2057 8.31242 27.781C8.31242 29.3563 9.61615 30.5622 11.1353 30.5622C12.6545 30.5622 13.9583 29.3563 13.9583 27.781C13.9583 26.2057 12.6545 24.9997 11.1353 24.9997ZM25.302 24.9997C23.7828 24.9997 22.4791 26.2057 22.4791 27.781C22.4791 29.3563 23.7828 30.5622 25.302 30.5622C26.8212 30.5622 28.1249 29.3563 28.1249 27.781C28.1249 26.2057 26.8212 24.9997 25.302 24.9997Z" fill="#FFFFFE"/>
</svg>
