<svg width="15" height="9" viewBox="0 0 15 9" fill="none" xmlns="http://www.w3.org/2000/svg">
<path fill-rule="evenodd" clip-rule="evenodd" d="M8.25623 8.44409C8.05904 8.63965 7.79163 8.74951 7.5128 8.74951C7.23397 8.74951 6.96656 8.63965 6.76937 8.44409L0.820896 2.54299C0.720465 2.44676 0.640357 2.33166 0.585248 2.20439C0.530139 2.07712 0.501131 1.94024 0.499918 1.80173C0.498704 1.66322 0.52531 1.52586 0.578182 1.39766C0.631053 1.26946 0.709132 1.15299 0.807863 1.05504C0.906593 0.957099 1.024 0.879642 1.15323 0.827191C1.28245 0.774741 1.42092 0.748348 1.56054 0.749551C1.70016 0.750755 1.83814 0.779531 1.96643 0.834202C2.09472 0.888872 2.21075 0.968341 2.30775 1.06797L7.5128 6.23157L12.7178 1.06797C12.9162 0.877955 13.1818 0.772811 13.4575 0.775188C13.7332 0.777565 13.9969 0.887271 14.1919 1.08068C14.3869 1.27409 14.4974 1.53572 14.4998 1.80923C14.5022 2.08275 14.3962 2.34625 14.2047 2.54299L8.25623 8.44409Z" fill="#FFFFFE"/>
</svg>
