<svg width="278" height="299" viewBox="0 0 278 299" fill="none" xmlns="http://www.w3.org/2000/svg">
<path d="M145.129 42.9032C145.129 42.9032 147.831 41.3003 152.388 50.9361C153.702 53.7187 154.693 55.0155 157.98 64.5252C161.267 74.0349 163.617 79.0959 163.617 79.0959C163.617 79.0959 152.009 64.147 148.128 56.2402C144.247 48.3335 145.129 42.9032 145.129 42.9032Z" fill="white"/>
<path d="M165.734 82.518L163.293 79.3751C163.176 79.222 151.586 64.2911 147.768 56.4384C143.95 48.5857 144.679 43.0564 144.715 42.8312V42.6241L144.895 42.5161C145.117 42.4096 145.359 42.3498 145.605 42.3405C145.852 42.3312 146.097 42.3726 146.327 42.462C147.687 42.8853 149.929 44.6593 152.793 50.738C153.036 51.2603 153.27 51.7286 153.513 52.2059C154.549 54.2771 155.729 56.6185 158.412 64.3811C161.654 73.7738 163.996 78.8618 164.023 78.9068L165.734 82.518ZM145.571 43.2545C145.472 44.4522 145.3 49.3692 148.569 56.0421C151.361 61.7155 158.241 71.1712 161.798 75.917C160.79 73.4496 159.313 69.6673 157.593 64.6783C154.891 56.9697 153.765 54.6553 152.739 52.6111C152.496 52.1248 152.262 51.6475 152.018 51.1252C149.191 45.1546 147.156 43.6958 146.192 43.3536C145.994 43.2773 145.782 43.2436 145.571 43.2545Z" fill="#263238"/>
<path d="M182.952 66.4254C182.952 66.4254 186.986 62.3189 186.851 52.6021C186.716 42.8853 185.509 36.8877 182.222 38.1124C178.936 39.3372 173.829 42.8943 171.569 53.9529C169.309 65.0115 169.912 81.0952 172.082 79.7353C174.253 78.3755 182.952 66.4254 182.952 66.4254Z" fill="white"/>
<path d="M171.83 80.2847C171.65 80.2824 171.474 80.2259 171.326 80.1226C169.228 78.6637 169.111 63.7057 171.128 53.8719C173.334 43.0654 178.332 39.13 182.06 37.6622C182.42 37.5057 182.812 37.4419 183.202 37.4765C183.592 37.5111 183.968 37.6431 184.294 37.8603C186.221 39.1751 187.166 43.8398 187.284 52.5481C187.41 62.0487 183.681 66.2633 183.276 66.6685C182.718 67.434 174.505 78.7267 172.317 80.0955C172.177 80.2052 172.007 80.271 171.83 80.2847ZM183.042 38.4186C182.816 38.422 182.593 38.4679 182.385 38.5537C178.827 39.8955 174.136 43.6778 172.01 54.061C169.786 64.9125 170.515 78.7988 171.848 79.3931C173.559 78.2945 180.169 69.4872 182.565 66.1552H182.61C182.61 66.1552 186.509 62.0397 186.383 52.6471C186.275 44.4882 185.401 39.7964 183.789 38.6978C183.575 38.5306 183.314 38.4332 183.042 38.4186Z" fill="#263238"/>
<path d="M179.584 58.8248C179.584 58.8248 183.717 51.4764 192.065 49.108C200.413 46.7396 207.095 45.2357 205.42 52.1158C203.745 58.9959 196.055 65.5338 190.697 69.8564C185.338 74.179 169.885 89.8934 169.885 89.8934C169.885 89.8934 173.226 75.6559 176.189 68.2084C177.489 65.1441 178.622 62.0117 179.584 58.8248Z" fill="white"/>
<path d="M169.084 91.3433L169.444 89.7854C169.444 89.6413 172.83 75.4308 175.748 68.0283C177.037 64.9824 178.168 61.8713 179.134 58.7078L179.188 58.5907C182.091 53.8506 186.621 50.3294 191.93 48.6848C198.18 46.8837 203.124 45.713 205.195 47.7032C206.15 48.6037 206.366 50.1076 205.853 52.2059C204.052 59.6443 195.208 66.7766 190.967 70.2166C185.69 74.4852 170.353 90.0285 170.2 90.2176L169.084 91.3433ZM180.007 58.9869C179.899 59.3832 179.26 61.6255 176.594 68.3615C174.262 74.2421 171.659 84.5082 170.705 88.4165C174.379 84.7063 185.942 73.1074 190.408 69.5052C194.578 66.1462 203.25 59.149 204.979 52.0078C205.42 50.2067 205.285 49.027 204.574 48.3426C202.863 46.6946 197.739 47.9643 192.182 49.5403C184.474 51.7196 180.385 58.3475 180.007 58.9869Z" fill="#263238"/>
<path d="M190.697 69.8474C185.888 73.7377 172.956 86.7415 170.344 89.4431C171.092 88.0203 172.01 86.3273 173.145 84.3191C177.179 77.1688 190.354 67.56 195.613 62.9403C200.873 58.3205 205.069 48.8379 205.069 48.8379L205.276 48.5677C205.778 49.7074 205.827 50.9957 205.411 52.1698C203.745 58.9779 196.055 65.5248 190.697 69.8474Z" fill="white"/>
<path d="M168.543 91.8836L169.957 89.182C170.813 87.561 171.758 85.832 172.767 84.0399C175.928 78.4385 184.474 71.4324 190.733 66.3623C192.534 64.8764 194.137 63.5887 195.325 62.544C200.44 58.0413 204.619 48.6938 204.664 48.6037L204.718 48.5136L205.339 47.6942L205.672 48.2885C206.237 49.515 206.305 50.9125 205.862 52.1878C204.061 59.6263 195.217 66.7586 190.976 70.1986C186.185 74.0709 173.226 87.1468 170.678 89.7313L168.543 91.8836ZM205.186 49.6393C204.124 51.8907 200.44 59.2571 195.92 63.2375C194.722 64.2911 193.137 65.5879 191.3 67.0828C185.104 72.1348 176.63 79.0509 173.55 84.4992C173.091 85.3097 172.65 86.1111 172.217 86.8856C176.864 82.2208 186.419 72.7201 190.408 69.4962C194.578 66.1372 203.25 59.14 204.979 51.9987C205.197 51.2324 205.267 50.4318 205.186 49.6393Z" fill="#263238"/>
<path d="M173.451 59.8064C173.451 59.8064 173.901 51.0441 168.048 44.3441C162.194 37.6441 157.287 32.6371 154.99 39.6163C152.694 46.5955 155.729 56.6275 157.962 63.4085C160.195 70.1896 164.941 92.568 164.941 92.568C164.941 92.568 169.804 78.1594 171.326 69.9645C171.856 66.5435 172.565 63.1528 173.451 59.8064Z" fill="white"/>
<path d="M164.788 94.27L164.455 92.6581C164.455 92.4329 159.736 70.2256 157.53 63.5436C155.729 58.1854 152.072 47.0278 154.549 39.4813C155.26 37.311 156.26 36.1312 157.593 35.8791C160.429 35.2937 164.005 39.076 168.399 44.074C174.307 50.828 173.937 59.4822 173.919 59.8424V59.9595C173.919 59.9595 173.253 62.0308 171.767 70.0636C170.281 78.0964 165.463 92.577 165.364 92.7301L164.788 94.27ZM158.178 36.6986C158.043 36.6853 157.908 36.6853 157.773 36.6986C156.8 36.8967 155.972 37.9143 155.404 39.7154C153.018 46.9827 156.638 57.9513 158.385 63.2195C160.249 68.8748 163.86 85.5168 164.986 90.803C166.283 86.8406 169.633 76.3223 170.84 69.8384C172.217 62.427 172.884 60.1306 173.046 59.7254C173.046 58.9779 173.172 50.8461 167.751 44.6413C164.041 40.4538 160.546 36.6986 158.178 36.6986Z" fill="#263238"/>
<path d="M157.953 63.4085C159.961 69.4872 163.951 88.1193 164.752 91.8836C164.887 90.2176 165.013 88.2094 165.139 85.8139C165.562 77.2768 159.502 61.4994 157.512 54.5562C155.521 47.6131 157.061 36.8967 157.061 36.8967V36.5455C156.242 36.9867 155.549 37.9593 155.008 39.6163C152.685 46.6135 155.72 56.6275 157.953 63.4085Z" fill="white"/>
<path d="M164.941 95.0265L164.293 91.9827C163.509 88.2904 159.511 69.5953 157.512 63.5436C155.711 58.1854 152.054 47.0277 154.531 39.4812C155.098 37.7612 155.846 36.6716 156.8 36.1492L157.413 35.816L157.503 36.9147V36.9687C157.503 37.0678 155.99 47.6311 157.935 54.4302C158.385 56.0061 159.034 58.0323 159.79 60.3287C162.375 68.2805 165.905 79.159 165.581 85.841C165.472 87.9933 165.337 90.0375 165.193 91.9196L164.941 95.0265ZM156.503 37.5541C155.997 38.2138 155.618 38.962 155.386 39.7604C153 47.0278 156.62 57.9963 158.367 63.2645C160.033 68.3075 163.068 82.0047 164.509 88.6777C164.563 87.7771 164.617 86.7775 164.671 85.7959C164.995 79.276 161.483 68.4876 158.926 60.5809C158.169 58.2575 157.512 56.2403 157.061 54.6553C155.359 48.6577 156.215 40.0846 156.521 37.5541H156.503Z" fill="#263238"/>
<path d="M206.96 63.2465C206.96 63.2465 207.366 60.6709 204.376 61.5715C201.386 62.472 196.154 66.5154 192.471 69.5142C188.787 72.513 195.613 71.7656 198.936 69.9375C202.259 68.1094 206.96 63.2465 206.96 63.2465Z" fill="white"/>
<path d="M192.966 71.9727C192.065 71.9727 191.381 71.8016 191.111 71.3873C190.516 70.4868 191.777 69.4962 192.182 69.163C197.946 64.4712 201.89 61.8506 204.25 61.1392C204.659 60.9575 205.107 60.8828 205.553 60.9222C205.999 60.9616 206.427 61.1138 206.798 61.3643C207.042 61.622 207.224 61.932 207.33 62.2706C207.436 62.6093 207.464 62.9677 207.411 63.3185V63.4536L207.311 63.5617C207.122 63.7598 202.521 68.4876 199.207 70.3337C197.27 71.3257 195.14 71.8849 192.966 71.9727ZM205.465 61.8326C205.129 61.8431 204.795 61.9007 204.475 62.0037C202.232 62.6791 198.387 65.2457 192.714 69.8654C191.813 70.5949 191.813 70.892 191.813 70.9011C192.164 71.3964 196.037 70.9911 198.675 69.5412C201.62 67.9203 205.763 63.7778 206.483 63.0484C206.503 62.8683 206.485 62.6859 206.429 62.5134C206.373 62.341 206.281 62.1826 206.159 62.0488C205.962 61.8931 205.715 61.8161 205.465 61.8326Z" fill="#263238"/>
<path d="M142.491 175.454C144.481 167.079 159.601 113.019 161.402 108.688C163.203 104.356 168.12 96.0801 169.507 93.7117C170.894 91.3433 176.351 84.2561 180.178 82.1668C184.006 80.0776 194.803 78.2495 200.819 74.5843C206.834 70.9191 206.951 63.2465 206.951 63.2465C206.951 63.2465 203.529 65.831 200.756 66.4434C197.982 67.0558 189.868 69.145 185.032 72.2789C180.481 75.3977 176.669 79.477 173.865 84.229C172.181 87.444 165.635 96.2512 165.635 96.2512C166.32 93.7949 167.171 91.3879 168.183 89.0469C169.642 85.814 173.046 83.4456 176.675 78.8528C180.304 74.2601 182.844 71.5855 182.925 66.4074C183.006 61.2293 177.675 55.9341 173.325 54.3582C168.976 52.7822 163.05 53.3045 162.023 61.0942C160.997 68.8839 162.564 66.7946 164.599 75.5839C166.634 84.3731 164.644 90.4878 164.644 90.4878L164.221 81.4194C164.221 81.4194 162.42 72.414 161.276 70.5048C160.132 68.5957 154.351 60.9861 152.442 57.6271C150.533 54.2681 146.543 44.8485 145.129 42.9033C143.715 40.9581 141.428 45.9111 143.688 52.458C145.949 59.0049 152.036 65.732 155.603 70.6129C159.169 75.4938 161.717 79.15 162.897 83.1034C164.077 87.0567 160.835 100.952 160.835 100.952C160.835 100.952 140.627 167.889 139.78 171.392" fill="white"/>
<path d="M142.932 175.553L142.031 175.346C143.932 167.349 159.142 113.064 160.988 108.517C162.681 104.446 167.12 96.8726 168.786 94.0269L169.102 93.4866C170.588 90.9471 176.072 83.8868 179.908 81.7796C182.368 80.6526 184.924 79.7485 187.545 79.078C192.047 77.7632 197.072 76.2773 200.53 74.161C205.033 71.4054 206.123 66.2453 206.375 64.138C204.682 65.3458 202.797 66.2592 200.801 66.8396C199.765 67.0738 190.516 69.199 185.221 72.6121C180.74 75.6918 176.985 79.7115 174.217 84.3911C172.533 87.6061 166.211 96.0981 165.941 96.4764L164.581 98.4485L165.211 96.1432C165.905 93.6696 166.763 91.2448 167.778 88.8848C168.678 86.9036 170.281 85.2286 172.145 83.2835C173.622 81.797 175.02 80.2339 176.333 78.6007L177.233 77.421C180.331 73.5486 182.376 70.9911 182.448 66.4254C182.52 61.3373 177.044 56.2313 173.145 54.8084C170.38 53.8088 167.742 53.9079 165.788 55.0516C163.833 56.1953 162.825 58.2305 162.438 61.1842C161.807 65.9841 162.167 66.9027 163.032 69.118C163.863 71.1917 164.523 73.3301 165.004 75.5118C167.048 84.3191 165.13 90.3977 165.049 90.6589L164.284 93.0093L163.743 81.4644C163.743 81.4644 161.942 72.5941 160.871 70.757C160.411 70.0005 159.205 68.3165 157.809 66.3713C155.747 63.4896 153.18 59.9055 152.027 57.8793C151.127 56.3123 149.785 53.4306 148.488 50.675C147.381 48.1183 146.136 45.6232 144.76 43.2005C144.544 42.8943 144.427 42.9573 144.364 42.9844C143.508 43.4256 142.356 47.2529 144.121 52.35C145.886 57.447 149.929 62.5801 153.207 66.7586C154.207 68.0373 155.152 69.2441 155.963 70.3607C159.646 75.4038 162.149 79.0149 163.329 82.9683C164.509 86.9216 161.411 100.475 161.276 101.051C161.141 101.627 140.987 168.042 140.185 171.509L139.285 171.311C140.095 167.808 159.556 103.546 160.384 100.817C160.384 100.709 163.572 87.0207 162.447 83.2204C161.321 79.4202 158.844 75.845 155.242 70.874C154.441 69.7664 153.504 68.5687 152.541 67.2719C149.209 63.0484 145.075 57.7442 143.328 52.6111C141.581 47.478 142.527 42.9123 144.013 42.1469C144.284 42.0154 144.595 41.9935 144.882 42.0858C145.169 42.178 145.409 42.3773 145.553 42.6422C146.967 45.105 148.242 47.6455 149.371 50.2517C150.659 53.0254 151.991 55.8891 152.874 57.456C154 59.4372 156.557 63.0033 158.601 65.867C160.015 67.8302 161.231 69.5232 161.699 70.3157C162.888 72.2879 164.626 81.0051 164.698 81.3743L164.941 86.5434C165.281 82.9246 165.028 79.2746 164.194 75.737C163.72 73.5867 163.073 71.4785 162.258 69.4332C161.357 67.1368 160.952 66.0832 161.609 61.0582C162.032 57.8162 163.302 55.5379 165.382 54.2771C167.463 53.0164 170.488 52.8543 173.487 53.9529C178.233 55.6639 183.465 61.2113 183.393 66.4254C183.321 70.9281 181.376 73.7107 178.611 77.2318C180.46 75.2308 182.54 73.4563 184.807 71.9457C190.21 68.4516 199.621 66.2903 200.675 66.0562C203.322 65.4618 206.663 62.9583 206.699 62.9313L207.438 62.382V63.2825C207.438 63.5977 207.257 71.2343 201.089 74.9895C197.487 77.1688 192.408 78.6727 187.887 80.0055C185.33 80.6459 182.835 81.5108 180.43 82.5901C176.756 84.5983 171.344 91.5954 169.93 93.9729L169.615 94.5042C167.958 97.3409 163.545 104.869 161.879 108.913C159.961 113.397 144.832 167.574 142.932 175.553ZM175.09 81.4554C174.289 82.3559 173.514 83.1574 172.794 83.9048C170.921 85.859 169.435 87.3989 168.597 89.245C167.913 90.7759 167.301 92.487 166.85 93.8378C169.223 90.6792 171.435 87.4031 173.478 84.0219C173.96 83.1325 174.498 82.2752 175.09 81.4554Z" fill="#263238"/>
<path d="M114.34 9.24114C114.34 9.24114 116.861 7.36802 122.382 16.4905C123.976 19.1201 125.083 20.3088 129.343 29.4402C133.602 38.5717 136.43 43.3535 136.43 43.3535C136.43 43.3535 123.363 29.6654 118.689 22.1999C114.016 14.7344 114.34 9.24114 114.34 9.24114Z" fill="white"/>
<path d="M138.826 46.5414L136.124 43.6687C135.989 43.5336 122.967 29.8544 118.329 22.434C113.691 15.0136 113.899 9.43923 113.908 9.2141V8.99797L114.079 8.87189C114.29 8.74452 114.526 8.662 114.77 8.62947C115.015 8.59694 115.264 8.61508 115.502 8.68278C116.897 8.95294 119.293 10.4839 122.778 16.2563C123.075 16.7426 123.354 17.1568 123.678 17.6341C124.921 19.5883 126.335 21.8036 129.793 29.2511C133.972 38.2565 136.835 43.0744 136.862 43.1284L138.826 46.5414ZM114.79 9.5473C114.79 10.754 115.141 15.662 119.077 21.9567C122.427 27.36 130.243 36.0231 134.269 40.3817C133.008 38.0313 131.153 34.4202 128.929 29.6293C125.498 22.2359 124.102 20.0476 122.877 18.1204C122.58 17.6612 122.301 17.2199 121.976 16.7156C118.563 11.0692 116.384 9.82646 115.394 9.58332C115.197 9.5318 114.992 9.51956 114.79 9.5473Z" fill="#263238"/>
<path d="M154.315 28.7738C154.315 28.7738 157.917 24.2711 156.782 14.6264C155.648 4.98159 153.864 -0.871914 150.722 0.704029C147.579 2.27997 142.86 6.31438 141.716 17.5441C140.573 28.7738 142.842 44.7224 144.868 43.1464C146.894 41.5705 154.315 28.7738 154.315 28.7738Z" fill="white"/>
<path d="M144.598 43.7048C144.446 43.7028 144.298 43.6625 144.166 43.5877C141.932 42.354 140.293 27.4861 141.293 17.4721C142.428 6.59356 146.93 2.09087 150.533 0.289788C150.874 0.0997438 151.258 0 151.649 0C152.04 0 152.424 0.0997438 152.766 0.289788C154.81 1.39745 156.233 5.94517 157.269 14.5903C158.367 24.037 155.062 28.6117 154.72 28.999C154.243 29.8275 147.237 41.8947 145.192 43.4796C145.028 43.6244 144.817 43.7044 144.598 43.7048ZM151.703 0.902155C151.429 0.906028 151.16 0.97715 150.92 1.10928C147.516 2.8113 143.238 7.05283 142.185 17.5891C141.086 28.6207 143.22 42.354 144.616 42.8042C146.21 41.5525 151.874 32.0878 153.928 28.5487V28.4947C153.928 28.4947 157.386 23.992 156.305 14.6804C155.359 6.57555 154.009 1.99181 152.298 1.06425C152.115 0.964855 151.911 0.909359 151.703 0.902155Z" fill="#263238"/>
<path d="M150.208 21.5515C150.208 21.5515 153.567 13.8159 161.627 10.6099C169.687 7.40403 176.189 5.20671 175.225 12.2309C174.262 19.2551 167.274 26.5405 162.384 31.3944C157.494 36.2483 143.733 53.4216 143.733 53.4216C143.733 53.4216 145.607 38.9139 147.777 31.2053C148.758 28.0329 149.57 24.8104 150.208 21.5515Z" fill="white"/>
<path d="M143.085 54.9885L143.328 53.4216C143.328 53.2775 145.219 38.7969 147.381 31.1423C148.355 27.9783 149.161 24.7649 149.794 21.5155V21.3984C149.938 21.0742 153.324 13.4557 161.501 10.2228C167.535 7.81832 172.308 6.1253 174.586 7.89036C175.64 8.70985 176 10.1597 175.703 12.321C174.667 19.9035 166.607 27.9003 162.744 31.7456C157.926 36.5185 144.256 53.5837 144.121 53.7548L143.085 54.9885ZM150.641 21.6686C150.578 22.0829 150.172 24.3702 148.209 31.3494C146.489 37.437 144.949 47.9103 144.4 51.8997C147.678 47.8293 157.998 35.1136 162.068 31.0702C165.869 27.297 173.775 19.4443 174.775 12.1589C175.027 10.3578 174.775 9.16012 174.001 8.55676C172.127 7.08888 167.156 8.88095 161.798 11.0152C154.351 13.996 150.956 21.0022 150.641 21.6776V21.6686Z" fill="#263238"/>
<path d="M162.384 31.3944C157.998 35.753 146.471 50.0446 144.148 52.9263C144.751 51.4404 145.489 49.6573 146.417 47.5231C149.704 39.9946 161.816 29.089 166.58 23.956C171.344 18.8229 174.541 8.971 174.541 8.971L174.721 8.67383C175.33 9.7476 175.51 11.0119 175.225 12.2129C174.262 19.2462 167.274 26.5405 162.384 31.3944Z" fill="white"/>
<path d="M142.608 55.5739L143.733 52.7642C144.418 51.0622 145.174 49.2521 146.003 47.3609C148.578 41.4624 156.377 33.6457 162.068 27.9453C163.734 26.2703 165.175 24.8295 166.247 23.6678C170.885 18.6698 174.082 8.94396 174.118 8.8449L174.163 8.75485L174.694 7.85431L175.09 8.40363C175.775 9.5684 175.981 10.9531 175.667 12.2669C174.631 19.8495 166.571 27.8463 162.708 31.6916C158.322 36.0412 146.777 50.3597 144.499 53.1874L142.608 55.5739ZM174.739 9.80848C173.911 12.1589 171.002 19.8675 166.904 24.2801C165.824 25.4508 164.374 26.9007 162.708 28.5757C157.061 34.2311 149.335 41.9847 146.831 47.7212C146.453 48.5737 146.093 49.4112 145.751 50.2337C149.893 45.1096 158.421 34.6904 162.068 31.0792C165.869 27.3059 173.775 19.4532 174.775 12.1679C174.91 11.386 174.898 10.5858 174.739 9.80848Z" fill="#263238"/>
<path d="M144.229 23.1635C144.229 23.1635 143.778 14.4012 137.268 8.34061C130.757 2.27999 125.362 -2.2137 123.759 4.9726C122.157 12.1589 126.236 21.8127 129.163 28.3236C132.089 34.8345 139.069 56.6275 139.069 56.6275C139.069 56.6275 142.428 41.8046 143.085 33.4927C143.288 30.0322 143.669 26.5845 144.229 23.1635Z" fill="white"/>
<path d="M139.114 58.3295L138.609 56.7625C138.546 56.5464 131.63 34.9245 128.748 28.5126C126.443 23.3616 121.634 12.6361 123.345 4.8735C123.841 2.64917 124.705 1.37041 126.002 0.956158C128.767 0.100647 132.711 3.48667 137.574 8.00738C144.139 14.131 144.661 22.7762 144.679 23.1364V23.1995V23.2625C144.679 23.2625 144.229 25.3878 143.571 33.5286C142.914 41.6695 139.555 56.5734 139.519 56.7265L139.114 58.3295ZM126.902 1.73062C126.683 1.72769 126.464 1.75805 126.254 1.82068C125.308 2.11785 124.615 3.20751 124.21 5.06261C122.58 12.5371 127.299 23.0734 129.613 28.1434C132.053 33.5467 137.34 49.7564 139.006 54.9074C139.906 50.828 142.149 40.0305 142.68 33.4566C143.292 25.9101 143.715 23.5507 143.796 23.1274C143.742 22.389 143.022 14.2841 136.988 8.66477C132.999 4.99958 129.271 1.73062 126.902 1.73062Z" fill="#263238"/>
<path d="M129.163 28.3236C131.783 34.1681 137.655 52.3049 138.834 55.9611C138.789 54.2951 138.717 52.2779 138.591 49.8825C138.141 41.3544 130.486 26.3064 127.785 19.5703C125.083 12.8343 125.57 2.09087 125.57 2.09087L125.498 1.73065C124.732 2.26197 124.147 3.29759 123.768 5.00861C122.202 12.1589 126.218 21.8127 129.163 28.3236Z" fill="white"/>
<path d="M139.357 59.0589L138.402 56.1232C137.25 52.521 131.36 34.3482 128.748 28.5307C126.443 23.3796 121.634 12.6542 123.345 4.89153C123.732 3.09045 124.363 1.96478 125.263 1.34341L125.84 0.956177L126.038 2.03682V2.09086C126.038 2.19892 125.624 12.8973 128.253 19.4172C128.857 20.9391 129.712 22.8663 130.703 25.0996C134.08 32.7452 138.708 43.2005 139.06 49.8825C139.177 52.0077 139.258 54.061 139.303 55.9701L139.357 59.0589ZM125.101 2.75725C124.659 3.46226 124.353 4.24439 124.201 5.06263C122.571 12.5371 127.29 23.0734 129.604 28.1434C131.783 32.9973 136.196 46.3163 138.312 52.8002C138.276 51.8576 138.231 50.8941 138.177 49.9095C137.835 43.3986 133.251 33.0244 129.892 25.4508C128.902 23.2085 128.046 21.2723 127.434 19.7324C125.065 13.9149 125.047 5.30578 125.101 2.75725Z" fill="#263238"/>
<path d="M177.891 23.1635C177.891 23.1635 178.026 20.5609 175.189 21.7677C172.353 22.9744 167.481 27.5221 164.122 30.9081C160.763 34.2942 167.481 32.8263 170.597 30.665C173.712 28.5037 177.891 23.1635 177.891 23.1635Z" fill="white"/>
<path d="M164.293 33.3035C164.052 33.331 163.808 33.3075 163.577 33.2346C163.346 33.1617 163.132 33.0409 162.951 32.8803C162.285 32.0788 163.428 30.9351 163.798 30.5569C169.057 25.3068 172.713 22.29 174.982 21.3444C175.373 21.1251 175.813 21.0099 176.261 21.0099C176.709 21.0099 177.149 21.1251 177.54 21.3444C177.81 21.5725 178.023 21.8607 178.162 22.1859C178.302 22.5112 178.363 22.8644 178.341 23.2175V23.3616L178.251 23.4787C178.08 23.6948 173.992 28.8819 170.849 31.0432C168.884 32.3282 166.632 33.1049 164.293 33.3035ZM176.477 21.9027C176.078 21.9269 175.688 22.0246 175.324 22.1909C173.163 23.0914 169.606 26.0362 164.437 31.1963C163.617 32.0158 163.653 32.3129 163.653 32.322C164.05 32.7812 167.868 31.9798 170.335 30.2687C173.109 28.3506 176.801 23.8119 177.441 23.0104C177.443 22.8297 177.407 22.6505 177.336 22.4845C177.265 22.3185 177.159 22.1694 177.026 22.0468C176.864 21.9408 176.671 21.8902 176.477 21.9027Z" fill="#263238"/>
<path d="M125.227 141.368C126.353 132.831 135.899 77.511 137.25 73.0173C138.6 68.5236 142.653 59.7703 143.76 57.2939C144.868 54.8174 149.632 47.1898 153.234 44.7223C156.836 42.2549 167.382 39.3191 173.001 35.0596C178.62 30.8 177.936 23.1634 177.936 23.1634C177.936 23.1634 174.793 26.0812 172.1 26.9817C169.408 27.8823 161.546 30.8 157.052 34.3932C152.838 37.9568 149.456 42.4019 147.146 47.415C145.796 50.783 140.185 60.2206 140.185 60.2206C140.623 57.7133 141.224 55.2375 141.986 52.8092C143.112 49.4412 146.255 46.7395 149.398 41.8046C152.541 36.8696 154.801 33.9429 154.342 28.7738C153.883 23.6047 148.038 18.8679 143.535 17.7692C139.033 16.6706 133.206 17.7692 132.981 25.6309C132.756 33.4926 134.098 31.2503 137.024 39.7784C139.951 48.3065 138.591 54.6012 138.591 54.6012L137.25 45.5959C137.25 45.5959 134.548 36.8336 133.206 35.0325C131.864 33.2315 125.317 26.3063 123.102 23.1634C120.887 20.0206 115.898 11.0332 114.34 9.24111C112.782 7.44904 110.972 12.6091 113.89 18.8949C116.807 25.1806 123.516 31.2503 127.587 35.735C131.657 40.2196 134.548 43.5967 136.124 47.442C137.7 51.2873 135.899 65.4527 135.899 65.4527C135.899 65.4527 122.562 134.11 122.112 137.703" fill="white"/>
<path d="M125.678 141.422L124.777 141.305C125.849 133.2 135.394 77.619 136.817 72.8642C138.087 68.6317 141.725 60.6529 143.121 57.6451L143.373 57.0868C144.598 54.3851 149.326 46.8206 152.964 44.3261C155.298 42.9611 157.751 41.8126 160.294 40.8951C164.599 39.094 169.48 37.1308 172.713 34.6814C176.918 31.4844 177.459 26.2343 177.495 24.109C175.934 25.4858 174.153 26.5908 172.226 27.378C171.218 27.7112 162.249 30.773 157.314 34.7174C153.174 38.2417 149.849 42.6233 147.57 47.5591C146.228 50.9181 140.807 60.0315 140.582 60.4187L139.357 62.481L139.753 60.1126C140.181 57.5827 140.783 55.0853 141.554 52.6381C142.239 50.5669 143.67 48.7388 145.327 46.6225C146.641 44.9902 147.87 43.292 149.011 41.5345L149.83 40.2647C152.532 36.0952 154.279 33.3396 153.883 28.7918C153.441 23.7218 147.507 19.2011 143.445 18.1835C140.591 17.4631 137.934 17.8323 136.151 19.1741C134.368 20.5159 133.53 22.6412 133.449 25.6219C133.305 30.4578 133.755 31.3313 134.845 33.4476C135.887 35.4251 136.764 37.4853 137.466 39.6073C140.392 48.1624 139.105 54.4122 139.051 54.6733L138.537 57.0868L136.817 45.6589C136.817 45.6589 134.116 37.0228 132.864 35.3117C132.333 34.6003 130.955 33.0424 129.37 31.2503C127.028 28.5937 124.102 25.2977 122.751 23.3976C121.697 21.9297 120.049 19.1921 118.491 16.5535C117.118 14.1268 115.615 11.7759 113.989 9.5113C113.746 9.23213 113.637 9.30417 113.574 9.34019C112.773 9.8625 112.016 13.7889 114.286 18.6788C116.555 23.5687 121.112 28.2605 124.804 32.1058C125.93 33.2765 126.992 34.3842 127.911 35.4108C132.098 40.0576 134.953 43.3806 136.529 47.2169C138.105 51.0532 136.412 64.8314 136.34 65.4077C136.196 66.1282 122.994 134.128 122.553 137.658L121.652 137.55C122.093 133.948 134.89 68.0733 135.439 65.2727C135.439 65.1556 137.196 51.2242 135.692 47.5591C134.188 43.8939 131.351 40.5889 127.236 36.0141C126.335 34.9965 125.263 33.8979 124.147 32.7272C120.41 28.8369 115.754 23.983 113.466 19.057C111.179 14.1311 111.665 9.49328 113.079 8.58374C113.335 8.42204 113.643 8.36638 113.939 8.4286C114.235 8.49082 114.495 8.66602 114.664 8.91694C116.318 11.2318 117.843 13.6369 119.23 16.1213C120.797 18.7418 122.418 21.4614 123.444 22.9023C124.777 24.7574 127.677 28.0444 130.009 30.683C131.612 32.484 132.99 34.06 133.548 34.7984C134.926 36.5995 137.547 45.1276 137.655 45.4878L138.429 50.6029C138.402 46.9636 137.781 43.3532 136.592 39.9135C135.909 37.8331 135.051 35.8146 134.026 33.8799C132.9 31.6826 132.387 30.683 132.531 25.6129C132.621 22.344 133.656 19.9485 135.593 18.4807C137.529 17.0128 140.519 16.5445 143.643 17.328C148.542 18.5527 154.315 23.5327 154.765 28.7288C155.152 33.2315 153.504 36.1762 151.109 39.9135C152.743 37.7379 154.629 35.764 156.728 34.033C161.78 29.9895 170.894 26.8827 171.911 26.5405C174.487 25.685 177.558 22.8483 177.585 22.8213L178.26 22.1999L178.341 23.1004C178.341 23.4246 178.972 31.0342 173.226 35.4018C169.903 37.9323 164.959 39.9585 160.619 41.7056C158.143 42.6063 155.75 43.7211 153.468 45.0376C150.019 47.406 145.363 54.8894 144.184 57.429L143.932 57.9873C142.572 60.9771 138.943 68.9198 137.691 73.0893C136.268 77.8532 126.74 133.29 125.678 141.422ZM148.047 44.5332C147.345 45.5058 146.66 46.3884 146.021 47.2349C144.346 49.3781 143.031 51.0622 142.419 52.9803C141.914 54.5424 141.49 56.1295 141.149 57.7351C142.896 54.7273 145.823 49.5583 146.732 47.2889C147.113 46.3442 147.553 45.4239 148.047 44.5332Z" fill="#263238"/>
<path d="M45.5117 45.5239C45.5117 45.5239 46.4842 42.5431 56.2641 46.7666C59.0918 47.9913 60.6947 48.3065 69.448 53.2865C78.2012 58.2665 83.2892 60.4908 83.2892 60.4908C83.2892 60.4908 64.7021 56.8886 56.5703 53.5296C48.4384 50.1706 45.5117 45.5239 45.5117 45.5239Z" fill="white"/>
<path d="M87.1076 61.7156L83.2083 60.9591C83.0191 60.9591 64.4771 57.357 56.3992 53.9799C48.3214 50.6029 45.2506 45.9561 45.1695 45.767L45.0524 45.5869L45.1155 45.3798C45.321 44.9417 45.6845 44.5976 46.1331 44.4162C47.4209 43.8399 50.2665 43.6958 56.4442 46.3704L57.9482 47.0008C60.1004 47.9013 62.5319 48.8559 69.6552 52.9173C78.2823 57.8252 83.4154 60.1216 83.4604 60.1216L87.1076 61.7156ZM46.07 45.5149C46.7905 46.4875 49.9063 50.2967 56.7594 53.1424C62.6039 55.5739 74.0138 58.1314 79.8222 59.3472C77.4358 58.1674 73.8247 56.2943 69.2409 53.6828C62.1537 49.6483 59.7492 48.6758 57.633 47.8112C57.1287 47.6131 56.6424 47.415 56.1021 47.1809C50.0504 44.5603 47.5469 44.8034 46.6014 45.1907C46.4041 45.2617 46.2234 45.372 46.07 45.5149Z" fill="#263238"/>
<path d="M89.4129 38.2745C89.4129 38.2745 89.7371 32.5291 83.2172 25.3067C76.6973 18.0844 71.8614 14.3742 70.2044 17.4811C68.5474 20.5879 67.0615 26.6125 72.6539 36.3924C78.2462 46.1722 89.2958 57.9243 90.0613 55.4478C90.8268 52.9713 89.4129 38.2745 89.4129 38.2745Z" fill="white"/>
<path d="M89.6291 56.2313C86.9275 56.2313 77.1746 45.2357 72.2577 36.6355C66.8094 27.0808 67.9171 20.8311 69.8082 17.2649C69.9727 16.9113 70.2242 16.6052 70.5392 16.3753C70.8542 16.1454 71.2224 15.9991 71.6093 15.9502C73.9417 15.662 77.7149 18.5437 83.5414 25.0096C89.9172 32.0608 89.8452 37.7072 89.8452 38.2565C89.9352 39.2111 91.214 53.1064 90.4666 55.5829C90.4174 55.7504 90.3206 55.9001 90.1879 56.0136C90.0552 56.1271 89.8923 56.1996 89.7191 56.2222L89.6291 56.2313ZM71.9515 16.8237H71.7264C71.483 16.8564 71.2523 16.9516 71.0566 17.0999C70.8609 17.2483 70.707 17.4447 70.6097 17.6702C68.8086 21.0292 67.791 26.9727 73.0412 36.1672C78.5435 45.803 88.2693 55.745 89.6381 55.3127C90.2054 53.3585 89.3409 42.3629 88.9627 38.2925V38.2295C88.9627 38.1754 89.1788 32.5651 82.884 25.6219C77.5889 19.7774 73.9867 16.8237 71.9515 16.8237Z" fill="#263238"/>
<path d="M81.8754 34.7624C81.8754 34.7624 80.1284 26.5135 84.8382 19.2281C89.548 11.9428 93.5824 6.39547 96.8604 12.6722C100.138 18.949 98.6615 28.936 97.5088 35.726C96.3561 42.5161 95.0954 64.5433 95.0954 64.5433C95.0954 64.5433 88.2062 51.6205 85.5046 44.065C84.4607 40.902 83.2492 37.7968 81.8754 34.7624Z" fill="white"/>
<path d="M95.4556 66.1372L94.6991 64.7233C94.6271 64.5882 87.765 51.7015 85.0814 44.2181C84.0377 41.0763 82.8355 37.9895 81.4792 34.9695L81.4342 34.8524C80.4803 29.3713 81.556 23.7304 84.46 18.985C87.9901 13.5277 90.8989 9.38521 93.7806 9.49328C95.1044 9.55632 96.248 10.5289 97.2566 12.4651C100.805 19.2461 98.8776 30.4218 97.95 35.798C96.7974 42.489 95.5546 64.3091 95.5456 64.5342L95.4556 66.1372ZM82.3077 34.6183C82.4878 34.9965 83.4874 37.0948 85.9098 43.9209C88.0441 49.8734 92.862 59.3111 94.7171 62.8322C95.0323 57.6181 96.0679 41.2733 97.0405 35.6089C97.9411 30.3317 99.8502 19.3542 96.4372 12.8433C95.5906 11.2133 94.6991 10.4028 93.7355 10.3578C91.3311 10.2497 88.3323 14.5903 85.2164 19.4352C80.8668 26.2073 82.1636 33.8889 82.3077 34.6093V34.6183Z" fill="#263238"/>
<path d="M97.5088 35.726C96.4552 41.8136 95.3475 60.1396 95.1314 63.8408C94.7532 62.2829 94.3299 60.3917 93.8526 58.1404C92.1686 50.0986 95.7168 34.1951 96.6173 27.2519C97.5178 20.3088 94.42 10.4209 94.42 10.4209V10.0696C95.5403 10.5963 96.4212 11.5255 96.8875 12.6722C100.102 18.9399 98.6795 28.9359 97.5088 35.726Z" fill="white"/>
<path d="M95.4015 66.9296L94.6991 63.9489C94.2669 62.1478 93.7986 60.2566 93.4114 58.2304C92.0876 51.9267 93.9157 41.0481 95.2124 33.0874C95.5997 30.764 95.9329 28.7558 96.113 27.1889C97.0135 20.4348 93.9607 10.655 93.9247 10.5559V10.4478L93.8526 9.43024L94.492 9.64636C95.7198 10.206 96.6865 11.2147 97.1936 12.4651C100.742 19.2461 98.8146 30.4218 97.887 35.798C96.8424 41.8676 95.7347 60.2476 95.5186 63.8678L95.4015 66.9296ZM95.0593 11.0152C95.7437 13.4016 97.842 21.3714 97.0675 27.342C96.8604 28.9269 96.5272 30.9441 96.167 33.2765C94.8522 41.1562 93.0421 51.9537 94.3659 58.0863C94.555 58.9869 94.7531 59.8874 94.9423 60.788C95.3565 54.214 96.2661 40.769 97.1306 35.717C98.0311 30.4398 99.9403 19.4622 96.5272 12.9513C96.1742 12.2027 95.6751 11.5322 95.0593 10.9792V11.0152Z" fill="#263238"/>
<path d="M77.9221 39.5533C77.9221 39.5533 72.4738 32.6822 63.6575 31.5115C54.8413 30.3408 47.8711 29.8095 50.7258 36.5815C53.5805 43.3536 62.5048 48.9189 68.6555 52.5211C74.8062 56.1232 93.1141 69.8474 93.1141 69.8474C93.1141 69.8474 87.2607 55.781 82.9921 48.6217C81.1446 45.6897 79.4523 42.6627 77.9221 39.5533Z" fill="white"/>
<path d="M94.1588 71.1622L92.844 70.1716C92.6549 70.0365 74.491 56.4384 68.4304 52.8722C63.5585 50.0175 53.4274 44.065 50.3116 36.7526C49.411 34.6543 49.411 33.1504 50.2035 32.0248C52.0046 29.7194 57.1286 30.2237 63.7116 31.0702C72.6179 32.2409 78.0482 38.9859 78.2733 39.2741L78.3363 39.3822C78.3363 39.3822 79.2369 41.3724 83.3794 48.3876C87.5218 55.4028 93.4654 69.4872 93.5284 69.6313L94.1588 71.1622ZM55.7148 31.2593C53.4094 31.2593 51.6624 31.6015 50.924 32.5741C50.3206 33.3666 50.3926 34.6543 51.1401 36.4014C54.1749 43.4346 64.0808 49.2881 68.8807 52.0978C74.0227 55.1146 87.7109 65.2366 92.0425 68.4606C90.4035 64.6243 85.9819 54.5202 82.6049 48.8558C78.7326 42.3449 77.706 40.1746 77.5349 39.7874C77.0576 39.2201 71.7714 33.0424 63.5945 31.9617C60.9851 31.5637 58.3534 31.3291 55.7148 31.2593Z" fill="#263238"/>
<path d="M68.6555 52.521C74.1758 55.763 89.476 67.1368 92.5558 69.4331C91.5562 68.1003 90.3315 66.4974 88.8366 64.6243C83.5234 57.9243 68.5835 50.0535 62.4779 46.1272C56.3722 42.2008 50.4917 33.1594 50.4917 33.1594L50.2395 32.9073C49.9153 33.8078 50.0414 34.9695 50.7258 36.5815C53.6076 43.3445 62.5049 48.9189 68.6555 52.521Z" fill="white"/>
<path d="M94.7802 71.6215L92.2857 69.7574C89.2959 67.506 73.9327 56.1232 68.4304 52.8723C63.5585 50.0175 53.4274 44.065 50.3115 36.7526C49.6001 35.0866 49.411 33.7808 49.8163 32.7542L50.0504 32.1058L50.8699 32.9163C50.9329 33.0064 56.7774 41.9217 62.721 45.749C64.0988 46.6495 65.9179 47.7122 68.0161 48.9639C75.2204 53.2235 85.0363 59.068 89.1878 64.2731C90.5296 65.9661 91.7814 67.5871 92.916 69.1L94.7802 71.6215ZM50.5187 34.006C50.5769 34.8358 50.7876 35.6479 51.14 36.4014C54.1749 43.4346 64.0808 49.2881 68.8806 52.0978C73.4734 54.7994 84.7842 63.0844 90.2684 67.1368L88.4674 64.8674C84.4149 59.7524 74.6531 53.9619 67.5389 49.7384C65.4316 48.4866 63.6125 47.406 62.2167 46.5054C56.9665 43.1194 51.9595 36.1132 50.5187 34.006Z" fill="#263238"/>
<path d="M105.371 20.0206C105.371 20.0206 103.975 17.8323 102.327 20.4799C100.679 23.1274 99.409 29.6203 98.6165 34.3031C97.824 38.9859 102.462 33.9159 103.759 30.3498C105.055 26.7836 105.371 20.0206 105.371 20.0206Z" fill="white"/>
<path d="M99.0487 36.6356C98.977 36.6442 98.9044 36.6442 98.8326 36.6356C97.815 36.3654 98.0852 34.7714 98.1752 34.2491C99.409 26.9277 100.643 22.353 101.939 20.2638C102.57 19.2642 103.263 18.7509 104.011 18.7509C104.361 18.7837 104.699 18.8966 104.999 19.0808C105.299 19.265 105.552 19.5157 105.74 19.8135L105.821 19.9306V20.0746C105.821 20.3538 105.479 26.9368 104.182 30.5299C103.29 32.9614 100.58 36.6356 99.0487 36.6356ZM104.02 19.6244C103.506 19.6244 103.02 20.2187 102.714 20.714C101.48 22.6952 100.282 27.1709 99.0668 34.3752C98.8777 35.5189 99.0668 35.744 99.0668 35.744C99.6521 35.8791 102.3 33.0424 103.326 30.1967C104.47 27.0268 104.839 21.1913 104.902 20.1557C104.798 20.0123 104.667 19.8913 104.515 19.8C104.364 19.7087 104.195 19.649 104.02 19.6244Z" fill="#263238"/>
<path d="M130.982 146.87C126.947 139.27 102.66 88.6507 101.147 84.211C99.6341 79.7713 97.86 70.2887 97.3467 67.6321C96.8334 64.9755 96.2391 56.0061 97.743 51.9177C99.2468 47.8292 106.145 39.3101 108.243 32.5921C110.341 25.8741 105.371 19.9846 105.371 19.9846C105.371 19.9846 104.47 24.1901 102.822 26.4864C101.174 28.7828 96.4372 35.717 94.8612 41.2463C93.5006 46.5922 93.3285 52.1714 94.3569 57.5911C95.2124 61.1122 96.113 72.0537 96.113 72.0537C95.0092 69.7608 94.0615 67.396 93.2763 64.9755C92.2407 61.5804 93.2763 57.564 92.9341 51.7105C92.5919 45.857 92.772 42.1828 89.413 38.2025C86.054 34.2221 78.5615 33.7898 74.2479 35.5008C69.9343 37.2119 65.8278 41.4894 70.2045 48.0183C74.5811 54.5472 74.374 51.9447 81.6953 57.2038C89.0167 62.463 91.6013 68.3705 91.6013 68.3705L85.2975 61.8326C85.2975 61.8326 78.0212 56.2583 75.8779 55.5288C73.7346 54.7994 64.396 52.9533 60.7488 51.6925C57.1016 50.4318 47.8621 45.9741 45.5387 45.3888C43.2153 44.8034 44.7462 50.0896 50.7708 53.4936C56.7955 56.8976 65.8008 57.9963 71.6994 59.2751C77.5979 60.5538 81.9295 61.6435 85.4236 63.8408C88.9177 66.0381 95.5997 78.7717 95.5997 78.7717C95.5997 78.7717 124.534 142.449 126.218 145.637" fill="white"/>
<path d="M130.586 147.078C126.731 139.819 102.309 89.0199 100.724 84.3461C99.3099 80.1676 97.6439 71.5584 97.0225 68.3165L96.9054 67.7041C96.3381 64.8134 95.8068 55.8891 97.3197 51.7466C98.4383 49.2875 99.7702 46.9311 101.3 44.7044C103.786 40.778 106.604 36.3203 107.811 32.448C109.387 27.396 106.784 22.8123 105.587 21.0562C105.113 23.0829 104.304 25.0158 103.191 26.7746C102.561 27.6752 97.0225 35.3207 95.2935 41.3994C93.9588 46.6697 93.7897 52.1677 94.7982 57.51C95.6537 61.0311 96.5182 71.5945 96.5542 72.0447L96.7523 74.4311L95.7077 72.3329C94.5929 69.9983 93.6362 67.5914 92.844 65.1286C92.2046 63.0393 92.3127 60.7159 92.4298 58.0323C92.5594 55.9335 92.5775 53.8293 92.4838 51.7286L92.4117 50.2157C92.1866 45.2717 92.0335 42.0027 89.0707 38.5087C85.7748 34.6363 78.3093 34.3932 74.41 35.9151C71.7084 36.9957 69.7182 38.8238 69.0067 40.9581C68.2953 43.0924 68.8807 45.2987 70.5287 47.7752C73.2303 51.7916 74.1308 52.2779 76.211 53.3405C78.2054 54.3525 80.1148 55.524 81.9205 56.8436C89.2598 62.1118 91.8264 67.9473 91.9435 68.1904L92.925 70.4688L84.9012 62.1478C84.9012 62.1478 77.6969 56.6545 75.6707 56.0061C74.8332 55.736 72.816 55.2677 70.4746 54.7274C67.0256 53.9259 62.739 52.9263 60.5687 52.1608C58.8667 51.5755 55.9579 50.2967 53.1392 49.054C50.6186 47.8692 48.0364 46.8201 45.4036 45.9111C45.0434 45.821 44.9984 45.9111 44.9714 46.0101C44.6201 46.9107 46.2771 50.5128 50.9689 53.2145C55.6608 55.9161 62.0816 57.0688 67.3227 58.0594C68.9167 58.3655 70.4206 58.6537 71.7714 58.9599C77.868 60.3197 82.1276 61.3823 85.6307 63.5887C89.1338 65.795 95.7437 77.9973 96.0229 78.5286C96.3291 79.186 124.984 142.251 126.641 145.385L125.849 145.817C124.147 142.647 96.3651 81.5274 95.1764 78.9248C95.1224 78.8258 88.4674 66.4614 85.1174 64.3451C81.7674 62.2288 77.5438 61.1842 71.5373 59.8424C70.2045 59.5452 68.7005 59.2571 67.1156 58.9419C61.8114 57.9333 55.2015 56.6815 50.4827 53.9889C45.7638 51.2963 43.4855 47.2349 44.0978 45.6769C44.2157 45.3995 44.4354 45.1777 44.7118 45.0571C44.9881 44.9365 45.3001 44.9263 45.5837 45.0286C48.2672 45.9516 50.8977 47.0219 53.4634 48.2345C56.2641 49.4682 59.1639 50.738 60.8299 51.3143C62.9912 52.0618 67.2597 53.0524 70.6907 53.8448C73.0411 54.3942 75.0764 54.8714 75.9589 55.1506C78.1472 55.844 85.2074 61.2473 85.5046 61.4544L89.1068 65.1736C86.9714 62.2299 84.3708 59.6537 81.4071 57.546C79.6416 56.249 77.771 55.1013 75.8148 54.115C73.6265 52.9803 72.6269 52.458 69.7992 48.2435C67.9981 45.5419 67.4398 42.9843 68.1602 40.6609C68.8807 38.3376 71.06 36.2303 74.0587 35.0506C78.7506 33.2495 86.3421 33.9249 89.7281 37.8963C92.6729 41.3544 93.0151 44.6954 93.2402 49.135C93.303 46.3967 93.693 43.6758 94.4019 41.0302C96.203 34.8074 101.795 26.9998 102.435 26.1262C104.038 23.9379 104.893 19.8225 104.902 19.8225L105.091 18.9219L105.686 19.6244C105.893 19.8675 110.801 25.721 108.648 32.6101C107.406 36.5995 104.551 41.1112 102.038 45.0916C100.536 47.2608 99.2309 49.5603 98.1392 51.9627C96.6983 55.889 97.2386 64.6963 97.7609 67.434L97.878 68.0463C98.4994 71.2703 100.156 79.8434 101.552 83.9588C103.128 88.6146 127.506 139.306 131.351 146.555L130.586 147.078ZM93.4384 54.7454C93.4384 55.9431 93.3753 57.0598 93.3303 58.0954C93.2132 60.797 93.1142 62.9403 93.7085 64.8764C94.197 66.4407 94.7712 67.977 95.4285 69.4782C95.1043 66.0201 94.528 60.1126 93.9247 57.7712C93.6951 56.7746 93.5326 55.7637 93.4384 54.7454Z" fill="#263238"/>
<path d="M135.683 167.565C132.257 156.163 127.534 145.192 121.607 134.866C112.071 118.513 95.7167 93.5316 95.7167 93.5316C95.7167 93.5316 104.344 122.151 112.971 136.685C121.598 151.22 140.681 178.921 140.681 178.921L135.683 167.565Z" fill="white"/>
<path d="M140.311 179.173C140.113 178.894 121.13 151.256 112.584 136.911C104.038 122.565 95.3745 93.9548 95.2844 93.6847L94.3839 90.6949L96.0949 93.3064C96.257 93.5586 112.557 118.522 121.994 134.659C127.926 145.008 132.666 155.996 136.124 167.412L141.113 178.741L140.311 179.173ZM97.0855 96.5214C99.589 104.347 106.496 124.951 113.295 136.451C119.869 147.519 132.657 166.448 138.249 174.661L135.187 167.682C131.757 156.323 127.05 145.39 121.157 135.091C113.61 122.106 101.633 103.474 97.1216 96.5214H97.0855Z" fill="#263238"/>
<path d="M130.811 149.923C132.171 138.096 132.171 126.152 130.811 114.325C128.514 95.5398 123.363 66.1282 123.363 66.1282C123.363 66.1282 119.986 95.846 122.166 112.587C124.345 129.328 130.928 162.333 130.928 162.333L130.811 149.923Z" fill="white"/>
<path d="M130.468 162.387C130.405 162.054 123.868 129.193 121.706 112.605C119.545 96.017 122.859 66.3353 122.895 66.0381L123.246 62.9402L123.786 66.0111C123.841 66.3083 128.965 95.6478 131.243 114.235C132.589 126.09 132.589 138.059 131.243 149.914L131.342 162.288L130.468 162.387ZM123.453 69.3971C122.661 77.565 120.869 99.2229 122.598 112.488C124.264 125.249 128.523 147.69 130.423 157.452L130.36 149.86C131.703 138.068 131.703 126.162 130.36 114.37C128.523 99.4571 124.849 77.592 123.453 69.4331V69.3971Z" fill="#263238"/>
<path d="M144.985 186.701C146.346 174.871 146.346 162.924 144.985 151.094C142.68 132.309 137.538 102.897 137.538 102.897C137.538 102.897 134.152 132.615 136.34 149.356C138.528 166.097 145.129 199.102 145.129 199.102L144.985 186.701Z" fill="white"/>
<path d="M144.643 199.192C144.58 198.859 138.042 165.998 135.872 149.41C133.701 132.822 137.033 103.149 137.069 102.852L137.421 99.7543L137.961 102.825C137.961 103.113 143.139 132.453 145.417 151.04C146.763 162.898 146.763 174.87 145.417 186.728L145.516 199.102L144.643 199.192ZM137.628 106.202C136.835 114.37 135.043 136.037 136.772 149.302C138.429 162.063 142.698 184.504 144.598 194.266L144.535 186.674C145.877 174.882 145.877 162.976 144.535 151.184C142.689 136.271 139.024 114.361 137.628 106.202Z" fill="#263238"/>
<path d="M277.755 252.688C277.584 255.035 277.456 257.296 277.37 259.472C277.328 261.648 277.307 263.312 277.307 264.464C277.307 265.403 277.328 266.277 277.37 267.088C277.413 267.899 277.456 268.603 277.499 269.2H276.027C275.173 265.403 274.149 262.416 272.955 260.24C271.76 258.021 270.395 256.464 268.859 255.568C267.365 254.629 265.744 254.16 263.995 254.16H263.227V290.704C263.227 292.453 263.397 293.755 263.739 294.608C264.123 295.461 264.805 296.037 265.787 296.336C266.811 296.592 268.282 296.72 270.202 296.72V298C268.795 297.957 266.896 297.915 264.507 297.872C262.16 297.829 259.706 297.808 257.146 297.808C254.629 297.808 252.261 297.829 250.043 297.872C247.824 297.915 246.032 297.957 244.667 298V296.72C246.587 296.72 248.059 296.592 249.083 296.336C250.107 296.037 250.789 295.461 251.131 294.608C251.472 293.755 251.643 292.453 251.643 290.704V254.16H250.939C249.147 254.16 247.504 254.629 246.011 255.568C244.517 256.464 243.173 258 241.979 260.176C240.784 262.352 239.739 265.36 238.843 269.2H237.371C237.456 268.603 237.499 267.899 237.499 267.088C237.541 266.277 237.562 265.403 237.562 264.464C237.562 263.312 237.52 261.648 237.435 259.472C237.392 257.296 237.285 255.035 237.115 252.688C239.12 252.731 241.317 252.773 243.707 252.816C246.139 252.859 248.549 252.88 250.939 252.88C253.328 252.88 255.504 252.88 257.467 252.88C259.429 252.88 261.605 252.88 263.995 252.88C266.427 252.88 268.837 252.859 271.227 252.816C273.616 252.773 275.792 252.731 277.755 252.688Z" fill="black"/>
<path d="M216.08 251.856C218.726 251.856 220.774 252.133 222.224 252.688C223.675 253.2 224.912 253.755 225.936 254.352C226.448 254.651 226.854 254.885 227.152 255.056C227.494 255.184 227.814 255.248 228.112 255.248C228.539 255.248 228.838 255.013 229.008 254.544C229.222 254.075 229.392 253.371 229.52 252.432H230.992C230.95 253.285 230.886 254.288 230.8 255.44C230.758 256.592 230.715 258.128 230.672 260.048C230.672 261.925 230.672 264.421 230.672 267.536H229.201C229.03 265.232 228.496 263.013 227.6 260.88C226.704 258.747 225.467 256.976 223.888 255.568C222.352 254.16 220.454 253.456 218.192 253.456C216.23 253.456 214.608 254.011 213.328 255.12C212.048 256.187 211.408 257.723 211.408 259.728C211.408 261.349 211.814 262.757 212.624 263.952C213.435 265.104 214.651 266.277 216.272 267.472C217.936 268.667 220.027 270.139 222.544 271.888C224.55 273.211 226.342 274.533 227.92 275.856C229.499 277.179 230.758 278.672 231.696 280.336C232.678 282 233.168 284.005 233.168 286.352C233.168 289.168 232.4 291.515 230.865 293.392C229.329 295.227 227.302 296.613 224.784 297.552C222.267 298.448 219.515 298.896 216.528 298.896C213.755 298.896 211.536 298.64 209.872 298.128C208.251 297.616 206.864 297.083 205.712 296.528C204.774 295.931 204.048 295.632 203.536 295.632C203.11 295.632 202.79 295.867 202.576 296.336C202.406 296.805 202.256 297.509 202.128 298.448H200.656C200.742 297.381 200.784 296.144 200.784 294.736C200.827 293.285 200.848 291.429 200.848 289.168C200.891 286.907 200.912 284.027 200.912 280.528H202.384C202.555 283.429 203.024 286.139 203.792 288.656C204.603 291.173 205.819 293.221 207.44 294.8C209.104 296.336 211.302 297.104 214.032 297.104C215.568 297.104 216.912 296.848 218.064 296.336C219.216 295.824 220.134 295.077 220.816 294.096C221.499 293.072 221.84 291.835 221.84 290.384C221.84 288.592 221.435 287.035 220.624 285.712C219.814 284.389 218.704 283.152 217.296 282C215.888 280.805 214.246 279.611 212.368 278.416C210.363 277.093 208.486 275.749 206.736 274.384C204.987 273.019 203.579 271.504 202.512 269.84C201.488 268.133 200.976 266.085 200.976 263.696C200.976 260.965 201.68 258.725 203.088 256.976C204.496 255.227 206.352 253.947 208.656 253.136C211.003 252.283 213.478 251.856 216.08 251.856Z" fill="black"/>
<path d="M195.366 252.688V253.968C194.043 254.011 193.04 254.181 192.358 254.48C191.675 254.736 191.227 255.248 191.014 256.016C190.8 256.741 190.694 257.893 190.694 259.472V291.216C190.694 292.752 190.8 293.904 191.014 294.672C191.27 295.44 191.718 295.952 192.358 296.208C193.04 296.464 194.043 296.635 195.366 296.72V298C194.171 297.915 192.635 297.872 190.758 297.872C188.923 297.829 187.067 297.808 185.19 297.808C183.014 297.808 180.966 297.829 179.046 297.872C177.126 297.872 175.59 297.915 174.438 298V296.72C175.76 296.635 176.742 296.464 177.382 296.208C178.064 295.952 178.512 295.44 178.726 294.672C178.982 293.904 179.11 292.752 179.11 291.216V259.472C179.11 257.893 178.982 256.741 178.726 256.016C178.512 255.248 178.064 254.736 177.382 254.48C176.742 254.181 175.76 254.011 174.438 253.968V252.688C175.59 252.731 177.126 252.773 179.046 252.816C180.966 252.859 183.014 252.88 185.19 252.88C187.067 252.88 188.923 252.859 190.758 252.816C192.635 252.773 194.171 252.731 195.366 252.688Z" fill="black"/>
<path d="M129.25 252.688C130.402 252.731 131.938 252.773 133.858 252.816C135.778 252.859 137.698 252.88 139.618 252.88C141.709 252.88 143.714 252.859 145.634 252.816C147.597 252.773 148.983 252.752 149.794 252.752C153.975 252.752 157.41 253.179 160.098 254.032C162.829 254.885 164.877 256.144 166.242 257.808C167.607 259.429 168.29 261.456 168.29 263.888C168.29 265.424 167.97 266.939 167.33 268.432C166.733 269.883 165.687 271.227 164.194 272.464C162.743 273.701 160.717 274.683 158.114 275.408C155.554 276.133 152.311 276.496 148.386 276.496H142.242V275.216H147.746C150.093 275.216 151.863 274.747 153.058 273.808C154.295 272.827 155.127 271.547 155.554 269.968C156.023 268.347 156.258 266.555 156.258 264.592C156.258 261.221 155.725 258.619 154.658 256.784C153.591 254.907 151.778 253.968 149.218 253.968C147.639 253.968 146.615 254.331 146.146 255.056C145.719 255.781 145.506 257.253 145.506 259.472V291.216C145.506 292.752 145.613 293.904 145.826 294.672C146.082 295.44 146.53 295.952 147.17 296.208C147.853 296.464 148.855 296.635 150.178 296.72V298C148.983 297.915 147.447 297.872 145.57 297.872C143.735 297.829 141.879 297.808 140.002 297.808C137.826 297.808 135.778 297.829 133.858 297.872C131.938 297.872 130.402 297.915 129.25 298V296.72C130.573 296.635 131.554 296.464 132.194 296.208C132.877 295.952 133.325 295.44 133.538 294.672C133.794 293.904 133.922 292.752 133.922 291.216V259.472C133.922 257.893 133.794 256.741 133.538 256.016C133.325 255.248 132.877 254.736 132.194 254.48C131.554 254.181 130.573 254.011 129.25 253.968V252.688ZM141.986 275.408C143.65 275.451 145.165 275.536 146.53 275.664C147.895 275.792 149.111 275.92 150.178 276.048C151.287 276.133 152.247 276.197 153.058 276.24C157.282 276.496 160.418 277.307 162.466 278.672C164.557 279.995 165.879 281.979 166.434 284.624L167.778 291.28C168.162 292.901 168.567 294.053 168.994 294.736C169.421 295.376 170.018 295.675 170.786 295.632C171.255 295.632 171.661 295.547 172.002 295.376C172.343 295.163 172.685 294.864 173.026 294.48L173.922 295.312C172.685 296.635 171.341 297.552 169.89 298.064C168.439 298.619 166.754 298.896 164.834 298.896C162.317 298.896 160.247 298.405 158.626 297.424C157.047 296.443 156.045 294.629 155.618 291.984L154.53 285.584C154.274 283.835 153.933 282.277 153.506 280.912C153.122 279.547 152.589 278.48 151.906 277.712C151.223 276.901 150.263 276.496 149.026 276.496H142.114L141.986 275.408Z" fill="black"/>
<path d="M101.874 251.792C106.567 251.792 110.663 252.709 114.162 254.544C117.66 256.379 120.37 259.024 122.29 262.48C124.252 265.893 125.234 270.053 125.234 274.96C125.234 279.739 124.231 283.92 122.226 287.504C120.263 291.088 117.511 293.883 113.97 295.888C110.428 297.893 106.375 298.896 101.81 298.896C97.1589 298.896 93.0629 297.979 89.5215 296.144C86.0229 294.309 83.2922 291.664 81.3295 288.208C79.4095 284.752 78.4495 280.592 78.4495 275.728C78.4495 270.949 79.4522 266.768 81.4575 263.184C83.5055 259.6 86.2789 256.805 89.7775 254.8C93.2762 252.795 97.3082 251.792 101.874 251.792ZM101.618 252.944C99.3562 252.944 97.3935 253.904 95.7295 255.824C94.0655 257.744 92.7642 260.389 91.8255 263.76C90.9295 267.131 90.4815 271.035 90.4815 275.472C90.4815 279.995 90.9935 283.941 92.0175 287.312C93.0842 290.64 94.4922 293.221 96.2415 295.056C97.9909 296.848 99.9322 297.744 102.066 297.744C104.327 297.744 106.29 296.784 107.954 294.864C109.66 292.944 110.962 290.299 111.858 286.928C112.754 283.515 113.202 279.611 113.202 275.216C113.202 270.651 112.69 266.704 111.666 263.376C110.642 260.048 109.234 257.488 107.442 255.696C105.692 253.861 103.751 252.944 101.618 252.944Z" fill="black"/>
<path d="M59.815 252.688V253.968C58.3643 254.011 57.255 254.181 56.487 254.48C55.7617 254.736 55.271 255.248 55.015 256.016C54.759 256.741 54.631 257.893 54.631 259.472V292.24C54.631 293.477 54.7163 294.416 54.887 295.056C55.1003 295.653 55.463 296.059 55.975 296.272C56.487 296.443 57.255 296.528 58.279 296.528H60.903C62.183 296.528 63.463 296.144 64.743 295.376C66.023 294.608 67.2177 293.541 68.327 292.176C69.4363 290.768 70.3963 289.168 71.207 287.376C72.0177 285.541 72.5937 283.579 72.935 281.488H74.407C74.279 282.981 74.215 284.901 74.215 287.248C74.215 288.315 74.2363 289.851 74.279 291.856C74.3217 293.819 74.4497 295.867 74.663 298C72.487 297.915 70.0337 297.872 67.303 297.872C64.5723 297.829 62.1403 297.808 60.007 297.808C58.8977 297.808 57.4897 297.808 55.783 297.808C54.0763 297.808 52.2203 297.829 50.215 297.872C48.2097 297.872 46.183 297.893 44.135 297.936C42.087 297.936 40.167 297.957 38.375 298V296.72C39.6977 296.635 40.679 296.464 41.319 296.208C42.0017 295.952 42.4497 295.44 42.663 294.672C42.919 293.904 43.047 292.752 43.047 291.216V259.472C43.047 257.893 42.919 256.741 42.663 256.016C42.4497 255.248 42.0017 254.736 41.319 254.48C40.679 254.181 39.6977 254.011 38.375 253.968V252.688C39.527 252.731 41.063 252.773 42.983 252.816C44.903 252.859 46.951 252.88 49.127 252.88C51.1323 252.88 53.095 252.859 55.015 252.816C56.935 252.773 58.535 252.731 59.815 252.688Z" fill="black"/>
<path d="M35.008 252.688C34.8373 254.736 34.7093 256.699 34.624 258.576C34.5813 260.453 34.56 261.904 34.56 262.928C34.56 263.867 34.5813 264.741 34.624 265.552C34.6667 266.363 34.7093 267.067 34.752 267.664H33.28C32.64 264.251 31.744 261.563 30.592 259.6C29.4827 257.595 28.1813 256.187 26.688 255.376C25.2373 254.565 23.6373 254.16 21.888 254.16H20.416C19.264 254.16 18.368 254.267 17.728 254.48C17.1307 254.651 16.7253 255.035 16.512 255.632C16.3413 256.229 16.256 257.168 16.256 258.448V290.704C16.256 292.411 16.4267 293.691 16.768 294.544C17.1093 295.355 17.792 295.888 18.816 296.144C19.84 296.4 21.312 296.549 23.232 296.592V298C21.824 297.957 20.0107 297.915 17.792 297.872C15.5733 297.829 13.248 297.808 10.816 297.808C8.896 297.808 6.99733 297.829 5.12 297.872C3.28533 297.915 1.57867 297.957 0 298V296.72C1.32267 296.635 2.304 296.464 2.944 296.208C3.62667 295.952 4.07467 295.44 4.288 294.672C4.544 293.904 4.672 292.752 4.672 291.216V259.472C4.672 257.893 4.544 256.741 4.288 256.016C4.07467 255.248 3.62667 254.736 2.944 254.48C2.304 254.181 1.32267 254.011 0 253.968V252.688C1.83467 252.731 3.75467 252.773 5.76 252.816C7.808 252.816 9.81333 252.837 11.776 252.88C13.7813 252.88 15.6373 252.88 17.344 252.88C19.0933 252.88 20.5227 252.88 21.632 252.88C23.5947 252.88 25.8133 252.88 28.288 252.88C30.8053 252.837 33.0453 252.773 35.008 252.688ZM25.6 274.704C25.6 274.704 25.6 274.917 25.6 275.344C25.6 275.771 25.6 275.984 25.6 275.984H14.336C14.336 275.984 14.336 275.771 14.336 275.344C14.336 274.917 14.336 274.704 14.336 274.704H25.6ZM27.328 266.256C27.1573 268.688 27.072 270.544 27.072 271.824C27.1147 273.104 27.136 274.277 27.136 275.344C27.136 276.411 27.1573 277.584 27.2 278.864C27.2427 280.144 27.3493 282 27.52 284.432H26.048C25.792 282.896 25.3227 281.488 24.64 280.208C23.9573 278.928 23.04 277.904 21.888 277.136C20.7787 276.368 19.3707 275.984 17.664 275.984V274.704C18.9013 274.704 19.9893 274.448 20.928 273.936C21.8667 273.381 22.656 272.677 23.296 271.824C23.9787 270.971 24.5333 270.053 24.96 269.072C25.3867 268.091 25.6853 267.152 25.856 266.256H27.328Z" fill="black"/>
<path d="M268.551 216.68C268.444 217.613 268.364 218.52 268.311 219.4C268.284 220.28 268.271 220.947 268.271 221.4C268.271 221.88 268.284 222.347 268.311 222.8C268.337 223.227 268.364 223.587 268.391 223.88H267.471C267.311 222.307 267.084 221.067 266.791 220.16C266.497 219.227 265.991 218.573 265.271 218.2C264.577 217.8 263.524 217.6 262.111 217.6H258.791C257.884 217.6 257.191 217.68 256.711 217.84C256.257 217.973 255.951 218.28 255.791 218.76C255.631 219.213 255.551 219.933 255.551 220.92V240.76C255.551 241.72 255.631 242.44 255.791 242.92C255.951 243.4 256.257 243.72 256.711 243.88C257.191 244.013 257.884 244.08 258.791 244.08H261.711C263.391 244.08 264.657 243.853 265.511 243.4C266.391 242.947 267.017 242.213 267.391 241.2C267.791 240.16 268.084 238.76 268.271 237H269.191C269.111 237.72 269.071 238.68 269.071 239.88C269.071 240.387 269.084 241.12 269.111 242.08C269.164 243.013 269.244 243.987 269.351 245C267.991 244.947 266.457 244.92 264.751 244.92C263.044 244.893 261.524 244.88 260.191 244.88C259.604 244.88 258.844 244.88 257.911 244.88C257.004 244.88 256.017 244.893 254.951 244.92C253.884 244.92 252.804 244.933 251.711 244.96C250.617 244.96 249.577 244.973 248.591 245V244.2C249.497 244.147 250.177 244.04 250.631 243.88C251.111 243.72 251.431 243.4 251.591 242.92C251.751 242.44 251.831 241.72 251.831 240.76V220.92C251.831 219.933 251.751 219.213 251.591 218.76C251.431 218.28 251.111 217.96 250.631 217.8C250.177 217.613 249.497 217.507 248.591 217.48V216.68C249.577 216.707 250.617 216.733 251.711 216.76C252.804 216.76 253.884 216.773 254.951 216.8C256.017 216.8 257.004 216.8 257.911 216.8C258.844 216.8 259.604 216.8 260.191 216.8C261.417 216.8 262.804 216.8 264.351 216.8C265.924 216.773 267.324 216.733 268.551 216.68ZM261.671 230.36C261.671 230.36 261.671 230.493 261.671 230.76C261.671 231.027 261.671 231.16 261.671 231.16H254.351C254.351 231.16 254.351 231.027 254.351 230.76C254.351 230.493 254.351 230.36 254.351 230.36H261.671ZM262.831 225.08C262.724 226.6 262.671 227.76 262.671 228.56C262.697 229.36 262.711 230.093 262.711 230.76C262.711 231.427 262.724 232.16 262.751 232.96C262.777 233.76 262.844 234.92 262.951 236.44H262.031C261.924 235.587 261.791 234.76 261.631 233.96C261.497 233.133 261.177 232.467 260.671 231.96C260.191 231.427 259.364 231.16 258.191 231.16V230.36C259.071 230.36 259.737 230.187 260.191 229.84C260.671 229.467 261.017 229 261.231 228.44C261.444 227.88 261.591 227.307 261.671 226.72C261.751 226.107 261.831 225.56 261.911 225.08H262.831Z" fill="black"/>
<path d="M245.468 216.68V217.48C244.562 217.507 243.868 217.64 243.388 217.88C242.935 218.12 242.628 218.507 242.468 219.04C242.308 219.573 242.228 220.333 242.228 221.32V245.2C242.068 245.2 241.908 245.2 241.748 245.2C241.615 245.2 241.468 245.2 241.308 245.2L224.508 219.24V240.36C224.508 241.32 224.588 242.08 224.748 242.64C224.935 243.173 225.282 243.56 225.788 243.8C226.322 244.013 227.108 244.147 228.148 244.2V245C227.668 244.947 227.042 244.92 226.268 244.92C225.495 244.893 224.762 244.88 224.068 244.88C223.402 244.88 222.722 244.893 222.028 244.92C221.362 244.92 220.802 244.947 220.348 245V244.2C221.255 244.147 221.935 244.013 222.388 243.8C222.868 243.56 223.188 243.173 223.348 242.64C223.508 242.08 223.588 241.32 223.588 240.36V220.92C223.588 219.933 223.508 219.213 223.348 218.76C223.188 218.28 222.868 217.96 222.388 217.8C221.935 217.613 221.255 217.507 220.348 217.48V216.68C220.802 216.707 221.362 216.733 222.028 216.76C222.722 216.787 223.402 216.8 224.068 216.8C224.655 216.8 225.215 216.787 225.748 216.76C226.282 216.733 226.762 216.707 227.188 216.68L241.308 238.44V221.32C241.308 220.333 241.215 219.573 241.028 219.04C240.868 218.507 240.522 218.12 239.988 217.88C239.482 217.64 238.708 217.507 237.668 217.48V216.68C238.148 216.707 238.775 216.733 239.548 216.76C240.348 216.787 241.082 216.8 241.748 216.8C242.442 216.8 243.122 216.787 243.788 216.76C244.482 216.733 245.042 216.707 245.468 216.68Z" fill="black"/>
<path d="M194.411 216.68C194.971 216.707 195.704 216.733 196.611 216.76C197.518 216.787 198.411 216.8 199.291 216.8C200.544 216.8 201.744 216.787 202.891 216.76C204.038 216.733 204.851 216.72 205.331 216.72C207.491 216.72 209.278 217.027 210.691 217.64C212.131 218.253 213.198 219.093 213.891 220.16C214.611 221.2 214.971 222.373 214.971 223.68C214.971 224.48 214.811 225.333 214.491 226.24C214.171 227.147 213.611 228 212.811 228.8C212.038 229.6 210.971 230.267 209.611 230.8C208.251 231.307 206.531 231.56 204.451 231.56H200.611V230.76H204.051C205.944 230.76 207.384 230.467 208.371 229.88C209.384 229.267 210.064 228.467 210.411 227.48C210.784 226.467 210.971 225.347 210.971 224.12C210.971 222.013 210.464 220.387 209.451 219.24C208.464 218.067 206.758 217.48 204.331 217.48C203.104 217.48 202.304 217.707 201.931 218.16C201.557 218.613 201.371 219.533 201.371 220.92V240.76C201.371 241.72 201.451 242.44 201.611 242.92C201.771 243.4 202.078 243.72 202.531 243.88C203.011 244.04 203.704 244.147 204.611 244.2V245C203.998 244.947 203.224 244.92 202.291 244.92C201.384 244.893 200.464 244.88 199.531 244.88C198.491 244.88 197.518 244.893 196.611 244.92C195.704 244.92 194.971 244.947 194.411 245V244.2C195.317 244.147 195.998 244.04 196.451 243.88C196.931 243.72 197.251 243.4 197.411 242.92C197.571 242.44 197.651 241.72 197.651 240.76V220.92C197.651 219.933 197.571 219.213 197.411 218.76C197.251 218.28 196.931 217.96 196.451 217.8C195.998 217.613 195.317 217.507 194.411 217.48V216.68ZM200.771 230.88C202.211 230.933 203.344 231 204.171 231.08C204.998 231.133 205.664 231.187 206.171 231.24C206.704 231.293 207.211 231.36 207.691 231.44C209.478 231.733 210.758 232.28 211.531 233.08C212.331 233.853 212.917 235.067 213.291 236.72L214.291 240.8C214.557 241.973 214.824 242.827 215.091 243.36C215.384 243.867 215.824 244.107 216.411 244.08C216.864 244.053 217.238 243.907 217.531 243.64C217.851 243.373 218.184 243.013 218.531 242.56L219.131 243C218.571 243.827 217.984 244.467 217.371 244.92C216.784 245.347 215.944 245.56 214.851 245.56C213.864 245.56 212.998 245.267 212.251 244.68C211.504 244.093 210.944 242.947 210.571 241.24L209.691 237.24C209.451 236.093 209.171 235.107 208.851 234.28C208.557 233.427 208.131 232.76 207.571 232.28C207.037 231.8 206.238 231.56 205.171 231.56H200.851L200.771 230.88Z" fill="black"/>
<path d="M191.665 216.68V217.48C190.759 217.507 190.065 217.64 189.585 217.88C189.132 218.12 188.825 218.507 188.665 219.04C188.505 219.573 188.425 220.333 188.425 221.32V233.36C188.425 235.227 188.305 236.853 188.065 238.24C187.825 239.627 187.399 240.827 186.785 241.84C186.119 242.96 185.145 243.867 183.865 244.56C182.585 245.227 181.119 245.56 179.465 245.56C178.185 245.56 176.959 245.4 175.785 245.08C174.639 244.787 173.625 244.227 172.745 243.4C171.972 242.653 171.359 241.867 170.905 241.04C170.479 240.213 170.185 239.2 170.025 238C169.865 236.8 169.785 235.293 169.785 233.48V220.92C169.785 219.933 169.705 219.213 169.545 218.76C169.385 218.28 169.065 217.96 168.585 217.8C168.132 217.613 167.452 217.507 166.545 217.48V216.68C167.105 216.707 167.839 216.733 168.745 216.76C169.652 216.787 170.625 216.8 171.665 216.8C172.599 216.8 173.519 216.787 174.425 216.76C175.359 216.733 176.132 216.707 176.745 216.68V217.48C175.839 217.507 175.145 217.613 174.665 217.8C174.212 217.96 173.905 218.28 173.745 218.76C173.585 219.213 173.505 219.933 173.505 220.92V234.16C173.505 235.52 173.572 236.813 173.705 238.04C173.839 239.24 174.105 240.307 174.505 241.24C174.932 242.147 175.572 242.867 176.425 243.4C177.279 243.907 178.412 244.16 179.825 244.16C181.852 244.16 183.412 243.72 184.505 242.84C185.625 241.933 186.399 240.693 186.825 239.12C187.279 237.547 187.505 235.773 187.505 233.8V221.32C187.505 220.333 187.385 219.573 187.145 219.04C186.932 218.507 186.559 218.12 186.025 217.88C185.492 217.64 184.772 217.507 183.865 217.48V216.68C184.345 216.707 184.972 216.733 185.745 216.76C186.545 216.787 187.279 216.8 187.945 216.8C188.639 216.8 189.319 216.787 189.985 216.76C190.679 216.733 191.239 216.707 191.665 216.68Z" fill="black"/>
<path d="M150.891 216.12C153.424 216.12 155.638 216.693 157.531 217.84C159.451 218.987 160.931 220.64 161.971 222.8C163.038 224.933 163.571 227.533 163.571 230.6C163.571 233.587 163.024 236.2 161.931 238.44C160.864 240.68 159.371 242.427 157.451 243.68C155.531 244.933 153.331 245.56 150.851 245.56C148.318 245.56 146.091 244.987 144.171 243.84C142.278 242.693 140.798 241.04 139.731 238.88C138.691 236.72 138.171 234.12 138.171 231.08C138.171 228.093 138.718 225.48 139.811 223.24C140.904 221 142.398 219.253 144.291 218C146.211 216.747 148.411 216.12 150.891 216.12ZM150.731 216.84C148.998 216.84 147.491 217.44 146.211 218.64C144.931 219.84 143.931 221.493 143.211 223.6C142.518 225.707 142.171 228.147 142.171 230.92C142.171 233.747 142.558 236.213 143.331 238.32C144.131 240.4 145.198 242.013 146.531 243.16C147.891 244.28 149.384 244.84 151.011 244.84C152.744 244.84 154.251 244.24 155.531 243.04C156.811 241.84 157.798 240.187 158.491 238.08C159.211 235.947 159.571 233.507 159.571 230.76C159.571 227.907 159.171 225.44 158.371 223.36C157.598 221.28 156.544 219.68 155.211 218.56C153.878 217.413 152.384 216.84 150.731 216.84Z" fill="black"/>
<path d="M112.809 216.68C113.369 216.707 114.103 216.733 115.009 216.76C115.916 216.787 116.809 216.8 117.689 216.8C118.943 216.8 120.143 216.787 121.289 216.76C122.436 216.733 123.249 216.72 123.729 216.72C126.529 216.72 128.636 217.307 130.049 218.48C131.463 219.653 132.169 221.16 132.169 223C132.169 223.933 131.969 224.853 131.569 225.76C131.196 226.64 130.556 227.453 129.649 228.2C128.769 228.92 127.583 229.507 126.089 229.96V230.04C128.196 230.307 129.836 230.813 131.009 231.56C132.209 232.28 133.049 233.133 133.529 234.12C134.009 235.107 134.249 236.147 134.249 237.24C134.249 238.76 133.863 240.107 133.089 241.28C132.343 242.427 131.249 243.333 129.809 244C128.369 244.667 126.649 245 124.649 245C124.063 245 123.183 244.987 122.009 244.96C120.836 244.907 119.423 244.88 117.769 244.88C116.836 244.88 115.916 244.893 115.009 244.92C114.103 244.92 113.369 244.947 112.809 245V244.2C113.716 244.147 114.396 244.04 114.849 243.88C115.329 243.72 115.649 243.4 115.809 242.92C115.969 242.44 116.049 241.72 116.049 240.76V220.92C116.049 219.933 115.969 219.213 115.809 218.76C115.649 218.28 115.329 217.96 114.849 217.8C114.396 217.613 113.716 217.507 112.809 217.48V216.68ZM122.729 217.48C121.503 217.48 120.703 217.707 120.329 218.16C119.956 218.613 119.769 219.533 119.769 220.92V240.76C119.769 241.693 119.849 242.4 120.009 242.88C120.169 243.36 120.463 243.68 120.889 243.84C121.316 244 121.943 244.08 122.769 244.08C125.383 244.08 127.276 243.48 128.449 242.28C129.649 241.053 130.249 239.32 130.249 237.08C130.249 235.027 129.689 233.44 128.569 232.32C127.476 231.2 125.663 230.64 123.129 230.64H119.009C119.009 230.64 119.009 230.533 119.009 230.32C119.009 230.08 119.009 229.96 119.009 229.96H122.449C124.023 229.96 125.236 229.667 126.089 229.08C126.943 228.467 127.529 227.667 127.849 226.68C128.169 225.667 128.329 224.587 128.329 223.44C128.329 221.467 127.889 219.987 127.009 219C126.156 217.987 124.729 217.48 122.729 217.48Z" fill="black"/>
<path d="M109.687 216.68V217.48C108.78 217.507 108.087 217.64 107.607 217.88C107.154 218.12 106.847 218.507 106.687 219.04C106.527 219.573 106.447 220.333 106.447 221.32V245.2C106.287 245.2 106.127 245.2 105.967 245.2C105.834 245.2 105.687 245.2 105.527 245.2L88.7271 219.24V240.36C88.7271 241.32 88.8071 242.08 88.9671 242.64C89.1537 243.173 89.5004 243.56 90.0071 243.8C90.5404 244.013 91.3271 244.147 92.3671 244.2V245C91.8871 244.947 91.2604 244.92 90.4871 244.92C89.7137 244.893 88.9804 244.88 88.2871 244.88C87.6204 244.88 86.9404 244.893 86.2471 244.92C85.5804 244.92 85.0204 244.947 84.5671 245V244.2C85.4737 244.147 86.1537 244.013 86.6071 243.8C87.0871 243.56 87.4071 243.173 87.5671 242.64C87.7271 242.08 87.8071 241.32 87.8071 240.36V220.92C87.8071 219.933 87.7271 219.213 87.5671 218.76C87.4071 218.28 87.0871 217.96 86.6071 217.8C86.1537 217.613 85.4737 217.507 84.5671 217.48V216.68C85.0204 216.707 85.5804 216.733 86.2471 216.76C86.9404 216.787 87.6204 216.8 88.2871 216.8C88.8737 216.8 89.4337 216.787 89.9671 216.76C90.5004 216.733 90.9804 216.707 91.4071 216.68L105.527 238.44V221.32C105.527 220.333 105.434 219.573 105.247 219.04C105.087 218.507 104.74 218.12 104.207 217.88C103.7 217.64 102.927 217.507 101.887 217.48V216.68C102.367 216.707 102.994 216.733 103.767 216.76C104.567 216.787 105.3 216.8 105.967 216.8C106.66 216.8 107.34 216.787 108.007 216.76C108.7 216.733 109.26 216.707 109.687 216.68Z" fill="black"/>
<path d="M71.393 216.48L81.153 241.64C81.553 242.653 82.0063 243.333 82.513 243.68C83.0197 244 83.4863 244.173 83.913 244.2V245C83.3797 244.947 82.7263 244.92 81.953 244.92C81.1797 244.893 80.4063 244.88 79.633 244.88C78.593 244.88 77.6197 244.893 76.713 244.92C75.8063 244.92 75.073 244.947 74.513 245V244.2C75.873 244.147 76.7397 243.92 77.113 243.52C77.4863 243.093 77.4063 242.2 76.873 240.84L69.433 220.96L70.073 220.44L63.113 238.52C62.6863 239.587 62.433 240.493 62.353 241.24C62.273 241.96 62.3397 242.533 62.553 242.96C62.793 243.387 63.1797 243.693 63.713 243.88C64.273 244.067 64.9663 244.173 65.793 244.2V245C65.0463 244.947 64.2597 244.92 63.433 244.92C62.633 244.893 61.8863 244.88 61.193 244.88C60.5263 244.88 59.953 244.893 59.473 244.92C59.0197 244.92 58.593 244.947 58.193 245V244.2C58.7263 244.067 59.273 243.76 59.833 243.28C60.393 242.773 60.8997 241.92 61.353 240.72L70.753 216.48C70.8597 216.48 70.9663 216.48 71.073 216.48C71.1797 216.48 71.2863 216.48 71.393 216.48ZM76.273 233.48V234.28H64.353L64.753 233.48H76.273Z" fill="black"/>
<path d="M34.2155 216.68C34.7755 216.707 35.5088 216.733 36.4155 216.76C37.3222 216.787 38.2155 216.8 39.0955 216.8C40.3488 216.8 41.5489 216.787 42.6955 216.76C43.8422 216.733 44.6555 216.72 45.1355 216.72C47.2955 216.72 49.0822 217.027 50.4955 217.64C51.9355 218.253 53.0022 219.093 53.6955 220.16C54.4155 221.2 54.7755 222.373 54.7755 223.68C54.7755 224.48 54.6155 225.333 54.2955 226.24C53.9755 227.147 53.4155 228 52.6155 228.8C51.8422 229.6 50.7755 230.267 49.4155 230.8C48.0555 231.307 46.3355 231.56 44.2555 231.56H40.4155V230.76H43.8555C45.7488 230.76 47.1888 230.467 48.1755 229.88C49.1888 229.267 49.8688 228.467 50.2155 227.48C50.5888 226.467 50.7755 225.347 50.7755 224.12C50.7755 222.013 50.2689 220.387 49.2555 219.24C48.2688 218.067 46.5622 217.48 44.1355 217.48C42.9088 217.48 42.1088 217.707 41.7355 218.16C41.3622 218.613 41.1755 219.533 41.1755 220.92V240.76C41.1755 241.72 41.2555 242.44 41.4155 242.92C41.5755 243.4 41.8822 243.72 42.3355 243.88C42.8155 244.04 43.5088 244.147 44.4155 244.2V245C43.8022 244.947 43.0288 244.92 42.0955 244.92C41.1888 244.893 40.2689 244.88 39.3355 244.88C38.2955 244.88 37.3222 244.893 36.4155 244.92C35.5088 244.92 34.7755 244.947 34.2155 245V244.2C35.1222 244.147 35.8022 244.04 36.2555 243.88C36.7355 243.72 37.0555 243.4 37.2155 242.92C37.3755 242.44 37.4555 241.72 37.4555 240.76V220.92C37.4555 219.933 37.3755 219.213 37.2155 218.76C37.0555 218.28 36.7355 217.96 36.2555 217.8C35.8022 217.613 35.1222 217.507 34.2155 217.48V216.68ZM40.5755 230.88C42.0155 230.933 43.1489 231 43.9755 231.08C44.8022 231.133 45.4689 231.187 45.9755 231.24C46.5089 231.293 47.0155 231.36 47.4955 231.44C49.2822 231.733 50.5622 232.28 51.3355 233.08C52.1355 233.853 52.7222 235.067 53.0955 236.72L54.0955 240.8C54.3622 241.973 54.6288 242.827 54.8955 243.36C55.1889 243.867 55.6288 244.107 56.2155 244.08C56.6688 244.053 57.0422 243.907 57.3355 243.64C57.6555 243.373 57.9889 243.013 58.3355 242.56L58.9355 243C58.3755 243.827 57.7888 244.467 57.1755 244.92C56.5888 245.347 55.7489 245.56 54.6555 245.56C53.6688 245.56 52.8022 245.267 52.0555 244.68C51.3089 244.093 50.7489 242.947 50.3755 241.24L49.4955 237.24C49.2555 236.093 48.9755 235.107 48.6555 234.28C48.3622 233.427 47.9355 232.76 47.3755 232.28C46.8422 231.8 46.0422 231.56 44.9755 231.56H40.6555L40.5755 230.88Z" fill="black"/>
<path d="M19.8365 216.12C21.5965 216.12 23.0365 216.387 24.1565 216.92C25.3031 217.427 26.3165 218.027 27.1965 218.72C27.7298 219.12 28.1298 219.173 28.3965 218.88C28.6898 218.56 28.8898 217.827 28.9965 216.68H29.9165C29.8631 217.667 29.8231 218.867 29.7965 220.28C29.7698 221.693 29.7565 223.56 29.7565 225.88H28.8365C28.6498 224.733 28.4765 223.827 28.3165 223.16C28.1565 222.467 27.9565 221.88 27.7165 221.4C27.5031 220.92 27.2098 220.44 26.8365 219.96C26.0098 218.867 24.9698 218.08 23.7165 217.6C22.4631 217.093 21.1431 216.84 19.7565 216.84C18.4498 216.84 17.2631 217.173 16.1965 217.84C15.1565 218.48 14.2498 219.413 13.4765 220.64C12.7298 221.867 12.1431 223.347 11.7165 225.08C11.3165 226.813 11.1165 228.76 11.1165 230.92C11.1165 233.16 11.3431 235.147 11.7965 236.88C12.2498 238.587 12.8765 240.027 13.6765 241.2C14.5031 242.373 15.4631 243.267 16.5565 243.88C17.6765 244.467 18.8765 244.76 20.1565 244.76C21.3565 244.76 22.6098 244.52 23.9165 244.04C25.2231 243.56 26.2498 242.787 26.9965 241.72C27.5831 240.947 27.9831 240.107 28.1965 239.2C28.4365 238.293 28.6498 237.027 28.8365 235.4H29.7565C29.7565 237.827 29.7698 239.787 29.7965 241.28C29.8231 242.747 29.8631 243.987 29.9165 245H28.9965C28.8898 243.853 28.7031 243.133 28.4365 242.84C28.1965 242.547 27.7831 242.587 27.1965 242.96C26.2098 243.653 25.1565 244.267 24.0365 244.8C22.9431 245.307 21.5298 245.56 19.7965 245.56C17.2631 245.56 15.0365 244.987 13.1165 243.84C11.2231 242.693 9.74312 241.04 8.67646 238.88C7.63646 236.72 7.11646 234.12 7.11646 231.08C7.11646 228.093 7.66312 225.48 8.75645 223.24C9.84979 221 11.3431 219.253 13.2365 218C15.1565 216.747 17.3565 216.12 19.8365 216.12Z" fill="black"/>
</svg>
